<?xml version="1.0" encoding="UTF-8"?>
<svg id="Layer_1" data-name="Layer 1" xmlns="http://www.w3.org/2000/svg" viewBox="0 0 50 50">
  <defs>
    <style>
      .cls-1 {
        fill: #fff;
      }
      
      .cls-1, .cls-2 {
        stroke-width: 0px;
      }

      .cls-2 {
        fill: #d45500;
      }

      @media (prefers-color-scheme: dark) {
        .cls-1 {
          fill: #d45500;
        }

        .cls-2 {
          fill: #212529;
        }
      }
    </style>
  </defs>
  <rect class="cls-2" width="50" height="50"/>
  <polygon class="cls-1" points="6.66 36.92 20.61 36.92 20.61 43.03 18.81 43.03 18.81 38.8 6.66 38.8 6.66 36.92"/>
  <polygon class="cls-1" points="32.37 44.6 42.81 44.6 42.81 28.4 32.37 28.4 32.37 30.28 40.51 30.28 40.51 35.48 32.37 35.48 32.37 37.42 40.47 37.42 40.47 42.72 32.37 42.72 32.37 44.6"/>
  <polygon class="cls-1" points="13.47 26.52 26.56 26.52 23.99 23.95 25.32 22.63 29.59 26.9 29.59 28.01 25.41 32.19 24.07 30.85 26.58 28.34 13.47 28.34 13.47 26.52"/>
  <polygon class="cls-1" points="28.53 15.2 30.7 15.2 33.75 5.12 36.87 15.2 39.02 15.2 35.15 2.43 32.48 2.43 28.53 15.2"/>
  <path class="cls-1" d="M12.5,22.63h-2.5L3.92,6.55h2.28l1.45,4.05h7.25l1.44-4.05h2.28l-6.13,16.08ZM11.25,20.28l2.99-7.84h-5.98"/>
</svg>